<svg xmlns="http://www.w3.org/2000/svg" viewBox="0 0 32 32" fill="none">
  <!-- Original stylized cat silhouette -->
  <path d="M6 4L3 13C3 21 9 27 16 27C23 27 29 21 29 13L26 4L19 10C17.5 11 14.5 11 13 10L6 4Z" fill="#000000"/>

  <!-- Added Inner Ear details (Pink #FFC0CB) -->
  <path d="M7 6 C6.5 7.5 5.5 10 5.5 11 L9 10 C8.5 8 7.5 7 7 6 Z" fill="#FFC0CB"/>
  <path d="M25 6 C25.5 7.5 26.5 10 26.5 11 L23 10 C23.5 8 24.5 7 25 6 Z" fill="#FFC0CB"/>

  <!-- Added Eyes with details (White, Green, Black) -->
  <circle cx="11" cy="15" r="2.5" fill="#FFFFFF"/>
  <circle cx="11" cy="15" r="1.5" fill="#90EE90"/> <!-- Light Green Iris -->
  <circle cx="11" cy="15" r="0.75" fill="#000000"/> <!-- Black Pupil -->
  <circle cx="12" cy="14" r="0.3" fill="#FFFFFF"/> <!-- Eye Glint -->

  <circle cx="21" cy="15" r="2.5" fill="#FFFFFF"/>
  <circle cx="21" cy="15" r="1.5" fill="#90EE90"/> <!-- Light Green Iris -->
  <circle cx="21" cy="15" r="0.75" fill="#000000"/> <!-- Black Pupil -->
  <circle cx="22" cy="14" r="0.3" fill="#FFFFFF"/> <!-- Eye Glint -->

  <!-- Added Nose (Pink #FFC0CB) -->
  <path d="M14 18 L16 20 L18 18 L14 18 Z" fill="#FFC0CB"/>

  <!-- Added Mouth curve (White stroke) -->
  <path d="M14.5 22.5 C15.5 23.5 16.5 23.5 17.5 22.5" stroke="#FFFFFF" stroke-width="0.5" fill="none"/>

  <!-- Added Whiskers (Light Grey #E0E0E0 lines) -->
  <line x1="14" y1="20.5" x2="8" y2="19" stroke="#E0E0E0" stroke-width="0.3"/>
  <line x1="14" y1="21" x2="7" y2="21" stroke="#E0E0E0" stroke-width="0.3"/>
  <line x1="14" y1="21.5" x2="8" y2="23" stroke="#E0E0E0" stroke-width="0.3"/>

  <line x1="18" y1="20.5" x2="24" y2="19" stroke="#E0E0E0" stroke-width="0.3"/>
  <line x1="18" y1="21" x2="25" y2="21" stroke="#E0E0E0" stroke-width="0.3"/>
  <line x1="18" y1="21.5" x2="24" y2="23" stroke="#E0E0E0" stroke-width="0.3"/>

  <!-- Added tiny tuft details to ear tips (White lines) -->
  <line x1="6" y1="3.5" x2="6.5" y2="4.5" stroke="#FFFFFF" stroke-width="0.3"/>
  <line x1="5.5" y1="4" x2="6" y2="5" stroke="#FFFFFF" stroke-width="0.3"/>
  <line x1="26" y1="3.5" x2="25.5" y2="4.5" stroke="#FFFFFF" stroke-width="0.3"/>
  <line x1="26.5" y1="4" x2="26" y2="5" stroke="#FFFFFF" stroke-width="0.3"/>
</svg>
